<?xml version="1.0" encoding="UTF-8" standalone="no"?>
<!-- Created with Inkscape (http://www.inkscape.org/) -->

<svg
   version="1.1"
   id="svg2"
   width="2674.2268"
   height="2674.2268"
   viewBox="0 0 2674.2268 2674.2268"
   sodipodi:docname="PEEL_LOGO設計.ai"
   xmlns:inkscape="http://www.inkscape.org/namespaces/inkscape"
   xmlns:sodipodi="http://sodipodi.sourceforge.net/DTD/sodipodi-0.dtd"
   xmlns="http://www.w3.org/2000/svg"
   xmlns:svg="http://www.w3.org/2000/svg">
  <defs
     id="defs6">
    <linearGradient
       x1="0"
       y1="0"
       x2="1"
       y2="0"
       gradientUnits="userSpaceOnUse"
       gradientTransform="matrix(93.851799,113.52113,113.52113,-93.851799,561.25488,824.62988)"
       spreadMethod="pad"
       id="linearGradient28">
      <stop
         style="stop-opacity:1;stop-color:#f7f7f8"
         offset="0"
         id="stop22" />
      <stop
         style="stop-opacity:1;stop-color:#4c9863"
         offset="0.96219534"
         id="stop24" />
      <stop
         style="stop-opacity:1;stop-color:#4c9863"
         offset="1"
         id="stop26" />
    </linearGradient>
    <linearGradient
       x1="0"
       y1="0"
       x2="1"
       y2="0"
       gradientUnits="userSpaceOnUse"
       gradientTransform="matrix(121.99205,38.936932,38.936932,-121.99205,568.04639,999.47266)"
       spreadMethod="pad"
       id="linearGradient50">
      <stop
         style="stop-opacity:1;stop-color:#f7f7f8"
         offset="0"
         id="stop44" />
      <stop
         style="stop-opacity:1;stop-color:#4c9863"
         offset="0.96219534"
         id="stop46" />
      <stop
         style="stop-opacity:1;stop-color:#4c9863"
         offset="1"
         id="stop48" />
    </linearGradient>
    <clipPath
       clipPathUnits="userSpaceOnUse"
       id="clipPath60">
      <path
         d="M 0,2005.669 H 2005.669 V 0 H 0 Z"
         id="path58" />
    </clipPath>
  </defs>
  <sodipodi:namedview
     id="namedview4"
     pagecolor="#ffffff"
     bordercolor="#000000"
     borderopacity="0.25"
     inkscape:showpageshadow="2"
     inkscape:pageopacity="0.0"
     inkscape:pagecheckerboard="0"
     inkscape:deskcolor="#d1d1d1" />
  <g
     id="g8"
     inkscape:groupmode="layer"
     inkscape:label="PEEL_LOGO設計"
     transform="matrix(1.3333333,0,0,-1.3333333,0,2674.2267)">
    <g
       id="g10">
      <g
         id="g12">
        <g
           id="g18">
          <g
             id="g20">
            <path
               d="m 544.453,880.667 c -7.549,-16.055 18.475,-57.17 18.793,-57.672 v 0 c 0.144,0.124 3.751,2.371 68.918,38.249 v 0 c 13.036,7.182 26.431,13.781 38.568,22.394 v 0 c 4.169,2.956 9.169,5.709 13.598,12.827 v 0 c 2.547,4.09 1.896,8.163 -0.658,12.477 v 0 c -3.297,5.579 -9.624,3.842 -15.253,5.589 v 0 c -9.428,2.925 -14.961,2.07 -24.358,5.108 v 0 c 0,0 -85.789,-9.582 -99.608,-38.972 m 18.796,-57.676 c 0,0 -10e-4,10e-4 -0.003,0.004 v 0 c -0.014,-0.011 0.003,-0.004 0.003,-0.004"
               style="fill:url(#linearGradient28);stroke:none"
               id="path30" />
          </g>
        </g>
      </g>
    </g>
    <g
       id="g32">
      <g
         id="g34">
        <g
           id="g40">
          <g
             id="g42">
            <path
               d="m 553.486,1066.791 -2.149,-14.969 33.274,-62.34 c 11.393,1.214 5.868,1.571 15.832,0.804 v 0 c 1.022,-0.18 3.776,-0.015 6.34,0.15 v 0 c 1.972,0.126 3.833,0.252 4.704,0.223 v 0 c 27.793,-0.942 72.449,-24.276 93.692,-21.441 v 0 c 2.472,37.668 -12.731,51.296 -30.559,69.356 v 0 c -10.964,11.106 -85.247,31.86 -111.769,31.863 v 0 c -6.088,0 -9.654,-1.092 -9.365,-3.646"
               style="fill:url(#linearGradient50);stroke:none"
               id="path52" />
          </g>
        </g>
      </g>
    </g>
    <g
       id="g54">
      <g
         id="g56"
         clip-path="url(#clipPath60)">
        <g
           id="g62"
           transform="translate(721.2798,1091.126)">
          <path
             d="m 0,0 c -11.326,22.513 -33.958,47.964 -59.506,64.254 -35.584,22.69 -79.54,27.454 -120.822,24.475 -1.28,-0.093 -26.58,-3.777 -26.594,-3.75 4.602,-9.184 9.266,-18.338 13.907,-27.506 5.904,-11.666 9.526,-25.155 18.427,-35.033 7.929,-8.8 20.136,-13.341 31.002,-17.472 39.584,-15.043 83.006,-47.281 107.56,-74.89 16.216,-18.227 18.994,-32.273 19.925,-51.986 7.28,7.734 13.162,17.964 20.313,33.889 C 17.949,-57.417 12.714,-25.259 0,0"
             style="fill:#4c9863;fill-opacity:1;fill-rule:nonzero;stroke:none"
             id="path64" />
        </g>
        <g
           id="g66"
           transform="translate(704.3906,1158.7456)">
          <path
             d="m 0,0 c -4.437,-0.102 -5.412,4.672 -5.648,5.223 0,0 -4.753,20.429 -10.787,18.596 -7.618,-2.635 -17.336,-7.216 -16.504,-7.985 7.455,-6.899 14.574,-24.065 20.611,-29.882 1.789,-1.508 3.155,-1.669 4.306,-1.646 14.121,1.245 26.663,2.209 36.595,2.946 6.124,0.053 9.613,20.342 6.033,24.76 C 23.024,6.83 9.978,1.757 0,0"
             style="fill:#4c9863;fill-opacity:1;fill-rule:nonzero;stroke:none"
             id="path68" />
        </g>
        <g
           id="g70"
           transform="translate(534.0264,1017.7056)">
          <path
             d="M 0,0 C -2.282,-28.716 -0.126,-62.702 34.055,-84.933 45.09,-92.11 58.149,-95.239 71.186,-97.995 h -0.003 l 0.025,-0.003 c 5.549,-1.172 11.096,-2.279 16.48,-3.599 6.589,-1.617 11.081,-2.584 17.521,-4.254 12.221,-4.036 13.845,-3.198 29.48,-9.464 4.916,-1.97 10.256,-3.449 13.93,-8.541 5.188,5.802 5.813,8.059 6.688,14.099 0.197,5.87 1.379,15.6 -7.873,28.473 -8.857,12.322 -24.049,25.925 -27.516,28.749 C 98.012,-34.691 81.746,-27.642 60.313,-7.825 46.127,5.292 45.347,7.15 33.02,21.923 c 0,0 -16.89,19.16 -12.361,30.681 C 20.659,52.604 2.009,25.318 0,0"
             style="fill:#4c9863;fill-opacity:1;fill-rule:nonzero;stroke:none"
             id="path72" />
        </g>
        <g
           id="g74"
           transform="translate(860.731,1077.9805)">
          <path
             d="m 0,0 v -40.317 h 26.154 c 19.813,0 28.531,6.802 28.531,20.662 C 54.685,-8.315 45.967,0 26.154,0 Z M -38.833,-139.852 V 36.537 h 65.515 c 40.419,0 66.572,-19.402 66.572,-57.2 0,-37.798 -26.153,-56.192 -66.572,-56.192 H 0 v -62.997 z"
             style="fill:#4c9863;fill-opacity:1;fill-rule:nonzero;stroke:none"
             id="path76" />
        </g>
        <g
           id="g78"
           transform="translate(1133.6216,1114.5176)">
          <path
             d="m 0,0 v -36.537 h -96.424 v -33.011 h 83.215 v -36.789 h -83.215 v -33.514 H 0 v -36.538 H -135.258 V 0 Z"
             style="fill:#4c9863;fill-opacity:1;fill-rule:nonzero;stroke:none"
             id="path80" />
        </g>
        <g
           id="g82"
           transform="translate(1312.4663,1114.5176)">
          <path
             d="m 0,0 v -36.537 h -96.424 v -33.011 h 83.216 v -36.789 h -83.216 v -33.514 H 0 v -36.538 H -135.258 V 0 Z"
             style="fill:#4c9863;fill-opacity:1;fill-rule:nonzero;stroke:none"
             id="path84" />
        </g>
        <g
           id="g86"
           transform="translate(1356.0532,938.1289)">
          <path
             d="M 0,0 V 176.389 H 38.834 V 36.538 h 96.424 V 0 Z"
             style="fill:#4c9863;fill-opacity:1;fill-rule:nonzero;stroke:none"
             id="path88" />
        </g>
      </g>
    </g>
  </g>
</svg>
