<svg xmlns="http://www.w3.org/2000/svg" xmlns:xlink="http://www.w3.org/1999/xlink" version="1.1" width="1000" height="1000" viewBox="0 0 1000 1000" xml:space="preserve">
<desc>Created with Fabric.js 3.5.0</desc>
<defs>
</defs>
<rect x="0" y="0" width="100%" height="100%" fill="#ffffff"/>
<g transform="matrix(1.0081 0 0 -1.0081 101.4701 665.2996)" id="path30">
<linearGradient id="SVGID_25" gradientUnits="userSpaceOnUse" gradientTransform="matrix(93.8518 113.5211 113.5211 -93.8518 561.2549 824.6299)" x1="0" y1="0" x2="1" y2="0">
<stop offset="0%" style="stop-color:rgb(247,247,248);stop-opacity: 1"/>
<stop offset="96.219534%" style="stop-color:rgb(241,158,64);stop-opacity: 1"/>
<stop offset="100%" style="stop-color:rgb(241,158,64);stop-opacity: 1"/>
</linearGradient>
<path style="stroke: none; stroke-width: 1; stroke-dasharray: none; stroke-linecap: butt; stroke-dashoffset: 0; stroke-linejoin: miter; stroke-miterlimit: 4; is-custom-font: none; font-file-url: none; fill: url(#SVGID_25); fill-rule: nonzero; opacity: 1;" transform=" translate(-614.5125, -871.3139)" d="m 544.453 880.667 c -7.549 -16.055 18.475 -57.17 18.793 -57.672 v 0 c 0.144 0.124 3.751 2.371 68.918 38.249 v 0 c 13.036 7.182 26.431 13.781 38.568 22.394 v 0 c 4.169 2.956 9.169 5.709 13.598 12.827 v 0 c 2.547 4.09 1.896 8.163 -0.658 12.477 v 0 c -3.297 5.579 -9.624 3.842 -15.253 5.589 v 0 c -9.428 2.925 -14.961 2.07 -24.358 5.108 v 0 c 0 0 -85.789 -9.582 -99.608 -38.972 m 18.796 -57.676 c 0 0 -0.001 0.001 -0.003 0.004 v 0 c -0.014 -0.011 0.003 -0.004 0.003 -0.004" stroke-linecap="round"/>
</g>
<g transform="matrix(1.0081 0 0 -1.0081 115.4605 515.7024)" id="path52">
<linearGradient id="SVGID_26" gradientUnits="userSpaceOnUse" gradientTransform="matrix(121.9921 38.9369 38.9369 -121.9921 568.0464 999.4727)" x1="0" y1="0" x2="1" y2="0">
<stop offset="0%" style="stop-color:rgb(247,247,248);stop-opacity: 1"/>
<stop offset="96.219534%" style="stop-color:rgb(241,158,64);stop-opacity: 1"/>
<stop offset="100%" style="stop-color:rgb(241,158,64);stop-opacity: 1"/>
</linearGradient>
<path style="stroke: none; stroke-width: 1; stroke-dasharray: none; stroke-linecap: butt; stroke-dashoffset: 0; stroke-linejoin: miter; stroke-miterlimit: 4; is-custom-font: none; font-file-url: none; fill: url(#SVGID_26); fill-rule: nonzero; opacity: 1;" transform=" translate(-628.3903, -1019.7081)" d="m 553.486 1066.791 l -2.149 -14.969 l 33.274 -62.34 c 11.393 1.214 5.868 1.571 15.832 0.804 v 0 c 1.022 -0.18 3.776 -0.015 6.34 0.15 v 0 c 1.972 0.126 3.833 0.252 4.704 0.223 v 0 c 27.793 -0.942 72.449 -24.276 93.692 -21.441 v 0 c 2.472 37.668 -12.731 51.296 -30.559 69.356 v 0 c -10.964 11.106 -85.247 31.86 -111.769 31.863 v 0 c -6.088 0 -9.654 -1.092 -9.365 -3.646" stroke-linecap="round"/>
</g>
<g transform="matrix(1.0081 0 0 -1.0081 111.0199 460.027)" id="path64" clip-path="url(#CLIPPATH_27)">
<clipPath id="CLIPPATH_27">
	<path transform="matrix(0.75 0 0 -0.75 128.1403 178.6086) translate(-1002.8345, -1002.8345)" id="path58" d="M 0 2005.669 H 2005.669 V 0 H 0 Z" stroke-linecap="round"/>
</clipPath>
<path style="stroke: none; stroke-width: 1; stroke-dasharray: none; stroke-linecap: butt; stroke-dashoffset: 0; stroke-linejoin: miter; stroke-miterlimit: 4; is-custom-font: none; font-file-url: none; fill: rgb(235,109,19); fill-rule: nonzero; opacity: 1;" transform=" translate(97.2942, 16.1904)" d="m 0 0 c -11.326 22.513 -33.958 47.964 -59.506 64.254 c -35.584 22.69 -79.54 27.454 -120.822 24.475 c -1.28 -0.093 -26.58 -3.777 -26.594 -3.75 c 4.602 -9.184 9.266 -18.338 13.907 -27.506 c 5.904 -11.666 9.526 -25.155 18.427 -35.033 c 7.929 -8.8 20.136 -13.341 31.002 -17.472 c 39.584 -15.043 83.006 -47.281 107.56 -74.89 c 16.216 -18.227 18.994 -32.273 19.925 -51.986 c 7.28 7.734 13.162 17.964 20.313 33.889 C 17.949 -57.417 12.714 -25.259 0 0" stroke-linecap="round"/>
</g>
<g transform="matrix(1.0081 0 0 -1.0081 193.619 371.385)" id="path68" clip-path="url(#CLIPPATH_28)">
<clipPath id="CLIPPATH_28">
	<path transform="matrix(0.75 0 0 -0.75 46.2058 90.6789) translate(-1002.8345, -1002.8345)" id="path58" d="M 0 2005.669 H 2005.669 V 0 H 0 Z" stroke-linecap="round"/>
</clipPath>
<path style="stroke: none; stroke-width: 1; stroke-dasharray: none; stroke-linecap: butt; stroke-dashoffset: 0; stroke-linejoin: miter; stroke-miterlimit: 4; is-custom-font: none; font-file-url: none; fill: rgb(235,109,19); fill-rule: nonzero; opacity: 1;" transform=" translate(-1.5295, -4.1197)" d="m 0 0 c -4.437 -0.102 -5.412 4.672 -5.648 5.223 c 0 0 -4.753 20.429 -10.787 18.596 c -7.618 -2.635 -17.336 -7.216 -16.504 -7.985 c 7.455 -6.899 14.574 -24.065 20.611 -29.882 c 1.789 -1.508 3.155 -1.669 4.306 -1.646 c 14.121 1.245 26.663 2.209 36.595 2.946 c 6.124 0.053 9.613 20.342 6.033 24.76 C 23.024 6.83 9.978 1.757 0 0" stroke-linecap="round"/>
</g>
<g transform="matrix(1.0081 0 0 -1.0081 98.3679 553.6358)" id="path72" clip-path="url(#CLIPPATH_29)">
<clipPath id="CLIPPATH_29">
	<path transform="matrix(0.75 0 0 -0.75 140.6907 271.4646) translate(-1002.8345, -1002.8345)" id="path58" d="M 0 2005.669 H 2005.669 V 0 H 0 Z" stroke-linecap="round"/>
</clipPath>
<path style="stroke: none; stroke-width: 1; stroke-dasharray: none; stroke-linecap: butt; stroke-dashoffset: 0; stroke-linejoin: miter; stroke-miterlimit: 4; is-custom-font: none; font-file-url: none; fill: rgb(235,109,19); fill-rule: nonzero; opacity: 1;" transform=" translate(-77.4088, 35.626)" d="M 0 0 C -2.282 -28.716 -0.126 -62.702 34.055 -84.933 C 45.09 -92.11 58.149 -95.239 71.186 -97.995 h -0.003 l 0.025 -0.003 c 5.549 -1.172 11.096 -2.279 16.48 -3.599 c 6.589 -1.617 11.081 -2.584 17.521 -4.254 c 12.221 -4.036 13.845 -3.198 29.48 -9.464 c 4.916 -1.97 10.256 -3.449 13.93 -8.541 c 5.188 5.802 5.813 8.059 6.688 14.099 c 0.197 5.87 1.379 15.6 -7.873 28.473 c -8.857 12.322 -24.049 25.925 -27.516 28.749 C 98.012 -34.691 81.746 -27.642 60.313 -7.825 C 46.127 5.292 45.347 7.15 33.02 21.923 c 0 0 -16.89 19.16 -12.361 30.681 C 20.659 52.604 2.009 25.318 0 0" stroke-linecap="round"/>
</g>
<g transform="matrix(1.0081 0 0 -1.0081 377.1157 509.0337)" id="path76" clip-path="url(#CLIPPATH_30)">
<clipPath id="CLIPPATH_30">
	<path transform="matrix(0.75 0 0 -0.75 -135.8156 227.2212) translate(-1002.8345, -1002.8345)" id="path58" d="M 0 2005.669 H 2005.669 V 0 H 0 Z" stroke-linecap="round"/>
</clipPath>
<path style="stroke: none; stroke-width: 1; stroke-dasharray: none; stroke-linecap: butt; stroke-dashoffset: 0; stroke-linejoin: miter; stroke-miterlimit: 4; is-custom-font: none; font-file-url: none; fill: rgb(235,109,19); fill-rule: nonzero; opacity: 1;" transform=" translate(-27.2105, 51.6575)" d="m 0 0 v -40.317 h 26.154 c 19.813 0 28.531 6.802 28.531 20.662 C 54.685 -8.315 45.967 0 26.154 0 Z M -38.833 -139.852 V 36.537 h 65.515 c 40.419 0 66.572 -19.402 66.572 -57.2 c 0 -37.798 -26.153 -56.192 -66.572 -56.192 H 0 v -62.997 z" stroke-linecap="round"/>
</g>
<g transform="matrix(1.0081 0 0 -1.0081 556.6101 509.0336)" id="path80" clip-path="url(#CLIPPATH_31)">
<clipPath id="CLIPPATH_31">
	<path transform="matrix(0.75 0 0 -0.75 -313.8667 227.2211) translate(-1002.8345, -1002.8345)" id="path58" d="M 0 2005.669 H 2005.669 V 0 H 0 Z" stroke-linecap="round"/>
</clipPath>
<path style="stroke: none; stroke-width: 1; stroke-dasharray: none; stroke-linecap: butt; stroke-dashoffset: 0; stroke-linejoin: miter; stroke-miterlimit: 4; is-custom-font: none; font-file-url: none; fill: rgb(235,109,19); fill-rule: nonzero; opacity: 1;" transform=" translate(67.629, 88.1945)" d="m 0 0 v -36.537 h -96.424 v -33.011 h 83.215 v -36.789 h -83.215 v -33.514 H 0 v -36.538 H -135.258 V 0 Z" stroke-linecap="round"/>
</g>
<g transform="matrix(1.0081 0 0 -1.0081 736.9046 509.0336)" id="path84" clip-path="url(#CLIPPATH_32)">
<clipPath id="CLIPPATH_32">
	<path transform="matrix(0.75 0 0 -0.75 -492.7114 227.2211) translate(-1002.8345, -1002.8345)" id="path58" d="M 0 2005.669 H 2005.669 V 0 H 0 Z" stroke-linecap="round"/>
</clipPath>
<path style="stroke: none; stroke-width: 1; stroke-dasharray: none; stroke-linecap: butt; stroke-dashoffset: 0; stroke-linejoin: miter; stroke-miterlimit: 4; is-custom-font: none; font-file-url: none; fill: rgb(235,109,19); fill-rule: nonzero; opacity: 1;" transform=" translate(67.629, 88.1945)" d="m 0 0 v -36.537 h -96.424 v -33.011 h 83.216 v -36.789 h -83.216 v -33.514 H 0 v -36.538 H -135.258 V 0 Z" stroke-linecap="round"/>
</g>
<g transform="matrix(1.0081 0 0 -1.0081 917.1992 509.0333)" id="path88" clip-path="url(#CLIPPATH_33)">
<clipPath id="CLIPPATH_33">
	<path transform="matrix(0.75 0 0 -0.75 -671.5563 227.2208) translate(-1002.8345, -1002.8345)" id="path58" d="M 0 2005.669 H 2005.669 V 0 H 0 Z" stroke-linecap="round"/>
</clipPath>
<path style="stroke: none; stroke-width: 1; stroke-dasharray: none; stroke-linecap: butt; stroke-dashoffset: 0; stroke-linejoin: miter; stroke-miterlimit: 4; is-custom-font: none; font-file-url: none; fill: rgb(235,109,19); fill-rule: nonzero; opacity: 1;" transform=" translate(-67.629, -88.1945)" d="M 0 0 V 176.389 H 38.834 V 36.538 h 96.424 V 0 Z" stroke-linecap="round"/>
</g>
</svg>